<?xml version="1.0" standalone="no"?><!DOCTYPE svg PUBLIC "-//W3C//DTD SVG 1.1//EN" "http://www.w3.org/Graphics/SVG/1.1/DTD/svg11.dtd"><svg t="1522508171054" class="icon" style="" viewBox="0 0 1024 1024" version="1.1" xmlns="http://www.w3.org/2000/svg" p-id="2444" xmlns:xlink="http://www.w3.org/1999/xlink" width="48" height="48"><defs><style type="text/css"></style></defs><path d="M66.861292 358.794689l890.276393 0 0 137.449465-890.276393 0 0-137.449465Z" p-id="2445" fill="#fec800"></path><path d="M877.166305 179.076538 435.369204 179.076538 146.778436 179.076538c-44.060495 0-79.917144 39.660278-79.917144 88.447425l0 61.825091 890.276393 0 0-4.889357 0-7.225565 0-49.655933C957.137685 218.845287 921.281035 179.076538 877.166305 179.076538z" p-id="2446" fill="#fec800"></path><path d="M66.861292 756.477061c0 48.677653 35.856649 88.446401 79.917144 88.446401l274.955212 0 455.43368 0c44.113707 0 79.970356-39.659255 79.970356-88.446401l0-230.786247-890.276393 0L66.861292 756.477061zM664.907017 719.587895l166.896124 0c7.659447 0 13.907755 6.247284 13.907755 13.907755 0 7.66047-6.247284 13.908778-13.907755 13.908778L664.907017 747.404428c-7.66047 0-13.908778-6.247284-13.908778-13.908778C650.998239 725.836203 657.245524 719.587895 664.907017 719.587895z" p-id="2447" fill="#fec800"></path></svg>